<?xml version="1.0" standalone="no"?>
<!DOCTYPE svg PUBLIC "-//W3C//DTD SVG 20010904//EN"
 "http://www.w3.org/TR/2001/REC-SVG-20010904/DTD/svg10.dtd">
<svg version="1.0" xmlns="http://www.w3.org/2000/svg"
 width="2574.000000pt" height="452.000000pt" viewBox="0 0 2574.000000 452.000000"
 preserveAspectRatio="xMidYMid meet">

<g transform="translate(0.000000,452.000000) scale(0.100000,-0.100000)"
fill="#000000" stroke="none">
<path d="M540 2300 l0 -1490 340 0 340 0 0 429 0 430 121 185 c67 102 124 186
128 186 3 0 116 -277 251 -615 l245 -615 358 0 c196 0 357 3 357 7 0 4 -171
436 -380 960 l-381 953 331 497 c181 274 339 513 350 531 l19 32 -359 0 -360
0 -340 -512 -340 -513 0 513 0 512 -340 0 -340 0 0 -1490z"/>
<path d="M3220 2300 l0 -1490 340 0 340 0 0 1490 0 1490 -340 0 -340 0 0
-1490z"/>
<path d="M4920 3774 c-186 -49 -330 -188 -384 -373 -14 -49 -16 -172 -16
-1096 0 -902 2 -1049 15 -1100 44 -167 170 -302 343 -368 56 -21 70 -22 661
-25 581 -3 606 -2 684 18 186 47 334 192 381 376 13 49 16 119 16 343 l0 281
-335 0 -335 0 0 -170 0 -170 -380 0 -380 0 2 808 3 807 375 0 375 0 3 -167 2
-168 335 0 335 0 0 275 c0 159 -5 296 -11 327 -39 192 -195 351 -394 403 -85
22 -1211 21 -1295 -1z"/>
<path d="M7240 2300 l0 -1490 340 0 340 0 0 427 0 426 123 188 c67 104 125
188 128 189 4 0 117 -276 252 -612 l245 -613 361 -3 361 -2 -19 47 c-11 27
-182 455 -380 952 -199 497 -361 910 -361 917 0 8 155 248 345 535 190 286
345 522 345 525 0 2 -161 4 -358 4 l-357 0 -340 -512 -340 -512 -3 512 -2 512
-340 0 -340 0 0 -1490z"/>
<path d="M10411 3774 c-173 -46 -310 -171 -373 -339 -22 -59 -23 -71 -26 -525
-2 -320 0 -484 8 -525 28 -148 133 -292 261 -360 121 -63 133 -65 547 -65
l372 0 0 -235 0 -235 -595 0 -595 0 0 -340 0 -341 728 3 c726 3 727 3 786 26
171 64 288 184 339 347 21 68 22 83 22 535 0 423 -2 470 -18 524 -61 198 -198
331 -392 381 -48 12 -130 15 -422 15 l-363 0 0 235 0 235 600 0 600 0 0 340 0
340 -712 -1 c-592 0 -722 -3 -767 -15z"/>
<path d="M12500 2300 l0 -1490 340 0 340 0 0 400 0 400 473 0 c522 0 558 4
677 62 84 41 187 142 229 226 62 122 62 127 59 830 l-3 637 -27 69 c-51 133
-146 239 -261 296 -128 62 -102 60 -1004 60 l-823 0 0 -1490z m1430 400 l0
-410 -375 0 -375 0 0 410 0 410 375 0 375 0 0 -410z"/>
<path d="M15240 2300 l0 -1490 890 0 890 0 0 340 0 340 -550 0 -550 0 0 1150
0 1150 -340 0 -340 0 0 -1490z"/>
<path d="M18057 2322 c-225 -807 -411 -1477 -414 -1490 l-5 -22 337 2 338 3 8
25 c4 14 31 109 60 213 l52 187 371 -2 371 -3 59 -213 60 -212 338 0 c319 0
339 1 334 18 -3 9 -186 665 -406 1457 -221 792 -405 1455 -411 1473 l-11 32
-336 0 -337 0 -408 -1468z m833 -59 c46 -164 85 -306 88 -315 4 -17 -9 -18
-172 -18 -134 0 -176 3 -176 12 0 22 165 618 171 618 3 0 43 -134 89 -297z"/>
<path d="M20930 3774 c-189 -50 -330 -187 -385 -376 -14 -49 -15 -118 -13
-544 3 -479 3 -490 25 -549 62 -164 211 -297 373 -334 26 -6 200 -11 418 -11
l372 0 0 -235 0 -235 -595 0 -595 0 0 -340 0 -340 698 0 c668 0 702 1 778 20
188 48 330 191 379 378 14 55 15 125 13 540 -3 467 -4 478 -26 537 -29 76 -80
154 -140 212 -55 53 -183 118 -261 133 -30 6 -213 10 -412 10 l-359 0 0 235 0
235 600 0 600 0 0 340 0 340 -707 -1 c-585 0 -718 -3 -763 -15z"/>
<path d="M23020 2300 l0 -1490 340 0 340 0 0 575 0 575 375 0 375 0 0 -575 0
-575 340 0 340 0 0 1490 0 1490 -340 0 -340 0 0 -575 0 -575 -375 0 -375 0 0
575 0 575 -340 0 -340 0 0 -1490z"/>
</g>
</svg>
