<?xml version="1.0" standalone="no"?>
<!DOCTYPE svg PUBLIC "-//W3C//DTD SVG 20010904//EN"
 "http://www.w3.org/TR/2001/REC-SVG-20010904/DTD/svg10.dtd">
<svg version="1.0" xmlns="http://www.w3.org/2000/svg"
 width="3356.000000pt" height="668.000000pt" viewBox="0 0 3356.000000 668.000000"
 preserveAspectRatio="xMidYMid meet">

<g transform="translate(0.000000,668.000000) scale(0.100000,-0.100000)"
fill="#000000" stroke="none">
<path d="M3258 5124 c-346 -83 -512 -493 -320 -790 47 -73 121 -140 200 -182
74 -40 124 -93 150 -163 40 -110 37 -209 -10 -268 -59 -76 -186 -133 -361
-162 -290 -48 -429 -108 -429 -184 0 -36 25 -61 96 -94 247 -117 887 -156
1336 -80 249 42 380 103 380 178 0 72 -152 134 -444 181 -341 55 -465 180
-396 402 25 82 72 136 158 184 212 118 326 372 267 597 -71 275 -355 447 -627
381z m0 -136 c7 -7 12 -24 12 -40 0 -21 -8 -31 -32 -44 -60 -31 -90 -58 -130
-121 -44 -68 -70 -81 -99 -52 -24 24 -24 30 5 87 29 57 100 128 158 159 49 25
69 28 86 11z"/>
<path d="M8260 3120 l0 -1490 340 0 340 0 0 429 0 430 121 185 c67 102 124
186 128 186 3 0 116 -277 251 -615 l245 -615 358 0 c196 0 357 3 357 7 0 4
-171 436 -380 960 l-381 953 331 497 c181 274 339 513 350 531 l19 32 -359 0
-360 0 -340 -512 -340 -513 0 513 0 512 -340 0 -340 0 0 -1490z"/>
<path d="M10940 3120 l0 -1490 340 0 340 0 0 1490 0 1490 -340 0 -340 0 0
-1490z"/>
<path d="M12640 4594 c-186 -49 -330 -188 -384 -373 -14 -49 -16 -172 -16
-1096 0 -902 2 -1049 15 -1100 44 -167 170 -302 343 -368 56 -21 70 -22 661
-25 581 -3 606 -2 684 18 186 47 334 192 381 376 13 49 16 119 16 343 l0 281
-335 0 -335 0 0 -170 0 -170 -380 0 -380 0 2 808 3 807 375 0 375 0 3 -167 2
-168 335 0 335 0 0 275 c0 159 -5 296 -11 327 -39 192 -195 351 -394 403 -85
22 -1211 21 -1295 -1z"/>
<path d="M14960 3120 l0 -1490 340 0 340 0 0 427 0 426 123 188 c67 104 125
188 128 189 4 0 117 -276 252 -612 l245 -613 361 -3 361 -2 -19 47 c-11 27
-182 455 -380 952 -199 497 -361 910 -361 917 0 8 155 248 345 535 190 286
345 522 345 525 0 2 -161 4 -358 4 l-357 0 -340 -512 -340 -512 -3 512 -2 512
-340 0 -340 0 0 -1490z"/>
<path d="M18131 4594 c-173 -46 -310 -171 -373 -339 -22 -59 -23 -71 -26 -525
-2 -320 0 -484 8 -525 28 -148 133 -292 261 -360 121 -63 133 -65 547 -65
l372 0 0 -235 0 -235 -595 0 -595 0 0 -340 0 -341 728 3 c726 3 727 3 786 26
171 64 288 184 339 347 21 68 22 83 22 535 0 423 -2 470 -18 524 -61 198 -198
331 -392 381 -48 12 -130 15 -422 15 l-363 0 0 235 0 235 600 0 600 0 0 340 0
340 -712 -1 c-592 0 -722 -3 -767 -15z"/>
<path d="M20220 3120 l0 -1490 340 0 340 0 0 400 0 400 473 0 c522 0 558 4
677 62 84 41 187 142 229 226 62 122 62 127 59 830 l-3 637 -27 69 c-51 133
-146 239 -261 296 -128 62 -102 60 -1004 60 l-823 0 0 -1490z m1430 400 l0
-410 -375 0 -375 0 0 410 0 410 375 0 375 0 0 -410z"/>
<path d="M22960 3120 l0 -1490 890 0 890 0 0 340 0 340 -550 0 -550 0 0 1150
0 1150 -340 0 -340 0 0 -1490z"/>
<path d="M25777 3142 c-225 -807 -411 -1477 -414 -1490 l-5 -22 337 2 338 3 8
25 c4 14 31 109 60 213 l52 187 371 -2 371 -3 59 -213 60 -212 338 0 c319 0
339 1 334 18 -3 9 -186 665 -406 1457 -221 792 -405 1455 -411 1473 l-11 32
-336 0 -337 0 -408 -1468z m833 -59 c46 -164 85 -306 88 -315 4 -17 -9 -18
-172 -18 -134 0 -176 3 -176 12 0 22 165 618 171 618 3 0 43 -134 89 -297z"/>
<path d="M28650 4594 c-189 -50 -330 -187 -385 -376 -14 -49 -15 -118 -13
-544 3 -479 3 -490 25 -549 62 -164 211 -297 373 -334 26 -6 200 -11 418 -11
l372 0 0 -235 0 -235 -595 0 -595 0 0 -340 0 -340 698 0 c668 0 702 1 778 20
188 48 330 191 379 378 14 55 15 125 13 540 -3 467 -4 478 -26 537 -29 76 -80
154 -140 212 -55 53 -183 118 -261 133 -30 6 -213 10 -412 10 l-359 0 0 235 0
235 600 0 600 0 0 340 0 340 -707 -1 c-585 0 -718 -3 -763 -15z"/>
<path d="M30740 3120 l0 -1490 340 0 340 0 0 575 0 575 375 0 375 0 0 -575 0
-575 340 0 340 0 0 1490 0 1490 -340 0 -340 0 0 -575 0 -575 -375 0 -375 0 0
575 0 575 -340 0 -340 0 0 -1490z"/>
<path d="M2855 3953 c-953 -44 -1768 -192 -2190 -397 -417 -204 -417 -429 0
-632 453 -220 1388 -380 2347 -401 l287 -6 11 -47 c14 -60 0 -155 -35 -227
-27 -54 -80 -104 -148 -139 -111 -57 -207 -173 -247 -299 -103 -327 125 -658
470 -682 344 -25 622 315 535 652 -35 133 -140 269 -255 329 -99 52 -147 112
-176 221 -17 62 -17 106 -2 156 l11 39 201 0 c218 0 468 12 751 35 651 54
1124 138 1510 266 428 143 621 308 561 477 -48 135 -226 249 -563 361 -420
140 -1010 238 -1703 282 -250 16 -712 18 -717 3 -3 -8 65 -13 224 -18 545 -17
1092 -82 1476 -175 371 -90 612 -205 682 -326 22 -37 27 -55 23 -93 -9 -92
-81 -163 -253 -247 -768 -377 -2879 -449 -4079 -139 -212 55 -429 145 -529
219 -66 49 -107 116 -107 174 0 264 738 495 1810 566 118 8 271 15 340 15 137
0 170 5 170 26 0 11 -31 14 -172 12 -95 -1 -200 -3 -233 -5z m242 -2445 c31
-53 64 -83 141 -129 21 -12 32 -26 32 -42 0 -109 -183 -10 -259 140 -25 51
-26 57 -5 78 28 28 55 14 91 -47z"/>
<path d="M3038 3769 c-867 -39 -1509 -213 -1567 -424 -59 -218 548 -417 1449
-475 210 -14 789 -14 985 0 889 62 1445 235 1445 450 0 184 -482 353 -1210
425 -161 16 -471 34 -575 35 -52 0 -58 -2 -45 -15 11 -11 61 -17 200 -25 735
-41 1198 -193 1137 -372 -39 -118 -380 -231 -845 -282 -801 -89 -1779 18
-2000 218 -74 67 -76 124 -8 184 150 131 620 234 1171 255 48 2 60 5 63 20 2
11 -2 17 -15 15 -10 0 -93 -4 -185 -9z"/>
</g>
</svg>
